<svg width="357" height="85" viewBox="0 0 357 85" fill="none" xmlns="http://www.w3.org/2000/svg">
<path d="M87.72 65L72.28 42.6L87 21H73.24L65.48 33.88L57.16 21H43.56L58.28 42.28L42.76 65H56.52L65.08 51.16L74.12 65H87.72Z" fill="black"/>
<path d="M119.836 20.04C113.676 20.04 108.956 22.92 105.916 27.16V21H94.4756V85H105.916V59.08C109.036 63.24 113.596 65.96 119.836 65.96C131.276 65.96 139.916 56.52 139.916 43C139.916 29.4 131.116 20.04 119.836 20.04ZM117.196 55.08C110.796 55.08 105.916 50.28 105.916 43C105.916 35.8 110.796 30.92 117.196 30.92C123.596 30.92 128.316 35.8 128.316 43C128.316 50.28 123.516 55.08 117.196 55.08Z" fill="black"/>
<path d="M169.744 20.04C157.104 20.04 146.864 29.72 146.864 43C146.864 56.2 156.944 65.96 169.744 65.96C182.624 65.96 192.704 56.28 192.704 43C192.704 29.72 182.464 20.04 169.744 20.04ZM169.744 30.92C176.144 30.92 181.104 35.8 181.104 43C181.104 50.28 176.144 55.08 169.744 55.08C163.344 55.08 158.384 50.28 158.384 43C158.384 35.8 163.344 30.92 169.744 30.92Z" fill="black"/>
<path d="M249.821 20.04C243.741 20.04 239.341 22.52 236.141 27V21H224.701V65H236.141V41.88C236.141 34.68 239.581 30.92 246.061 30.92C252.141 30.92 254.301 34.12 254.301 39.88V65H265.741V37.4C265.741 26.6 259.741 20.04 249.821 20.04Z" fill="black"/>
<path d="M298.706 12.44C300.386 12.44 302.306 12.76 304.226 13.32L305.746 13.72L307.826 4.43999C305.026 3.15999 300.866 2.43999 297.426 2.43999C288.306 2.43999 279.506 7.71999 279.506 20.28V21H271.666V31.8H279.506V65H290.946V31.8H305.586V21H290.946V20.84C290.946 15.16 293.506 12.44 298.706 12.44Z" fill="black"/>
<path d="M333.494 20.04C320.854 20.04 310.614 29.72 310.614 43C310.614 56.2 320.694 65.96 333.494 65.96C346.374 65.96 356.454 56.28 356.454 43C356.454 29.72 346.214 20.04 333.494 20.04ZM333.494 30.92C339.894 30.92 344.854 35.8 344.854 43C344.854 50.28 339.894 55.08 333.494 55.08C327.094 55.08 322.134 50.28 322.134 43C322.134 35.8 327.094 30.92 333.494 30.92Z" fill="black"/>
<path d="M37.68 19.88V8.99999H0.0800018V65H37.68V54.12H11.52V42.04H35.52V31.16H11.52V19.88H37.68Z" fill="#DB6E09"/>
<path d="M206.32 0.679993C202.32 0.679993 199.2 3.47999 199.2 7.39999C199.2 11.32 202.32 14.2 206.32 14.2C210.48 14.2 213.44 11.32 213.44 7.39999C213.44 3.47999 210.48 0.679993 206.32 0.679993ZM200.56 65H212V21H200.56V65Z" fill="#DB6E09"/>
</svg>
