<svg width="116" height="124" viewBox="0 0 116 124" fill="none" xmlns="http://www.w3.org/2000/svg">
<path d="M7.10185 9.25225H107.102V109.252H7.10185V9.25225Z" fill="black"/>
<path d="M57.0038 36.6065L48.8438 22.473L0 50.673L42 123.419L90.8438 95.2191L82.6838 81.0856L48.701 100.706L39.641 85.0132L70.8179 67.0132L62.6579 52.8797L31.481 70.8797L23.021 56.2265L57.0038 36.6065Z" fill="#DB6E09"/>
<path d="M59.9574 1.64595C54.7612 4.64595 52.8082 10.6233 55.7482 15.7155C58.6882 20.8077 64.9012 22.2089 70.0974 19.2089C75.5014 16.0889 77.1865 10.1277 74.2465 5.03548C71.3065 -0.056747 65.3614 -1.47405 59.9574 1.64595ZM100.715 89.5201L115.576 80.9401L82.5759 23.7824L67.7149 32.3624L100.715 89.5201Z" fill="#DB6E09"/>
</svg>
